@startuml
skinparam monochrome true
skinparam packageStyle rectangle
skinparam shadowing false

'left to right direction

skinparam classAttributeIconSize 0

hide circle
hide methods

title Domain Model

class Collaborator {
    name
    birthdate
    admissionDate
    address
    mobileContact
    emailContact
    IDdocType
    IDnumber
    taxNumber
    job
    skills
    assignedTasks

}

class Team {
    minimumElements
    maximumElements
    skillsRequired
    teamMembers
}

class Task {
    park
    taskType
    taskDescription
    priority
    status
}

class Agenda {
    plannedTasks
}

Collaborator "1..*" -- "1" Team: integrates >

Team "1" -- "1" Task: carry out >

Agenda "1" -- "*" Task: has >

@enduml