@startuml
'skinparam monochrome true
skinparam packageStyle rectangle
skinparam shadowing false
skinparam linetype polyline
'skinparam linetype orto

skinparam classAttributeIconSize 0

'left to right direction

class ApplicationSession
{
    + static getInstance()
    + getCurrentSession()
}

class UserSession
{
    + getUserEmail()
}

class Employee {
    - **a complementar estes atributos**
}

class Vehicle {
    - String brand
        - String model
        - String type
        - Integer tareWeight
        - Integer grossWeight
        - Integer currenteKm
        - Date registerDate
        - Date acquisitionDate
        - Integer maintenanceFrequency
        - String plateNumber
        - Integer passengersNumber
        - Integer doorsNumber
        - String fuelType
        - Boolean trailerMachines

        + Vehicle(brand, model, type, tare weight, \ngross weight, current km,register date, \nacquisition date, maintenance frequency, \nplate number, passengers number,\ndoors number, fuel type, trailer machines)
}

class VehicleMaintenance {
    - String description

    + VehicleMaintenance(description)
}

class Organization {
    - **String name**
    - **String vatNumber**
    - **String website**
    - **String phone**
    - **String email**

    - addVehicleMaintenance(vehicle)
    - validateVehicleMaintenance(vehicle)
    + anyEmployeeHasEmail(email)
    + Organization(**Inserir atributos acima**)
    + createVehicleMaintenance(date, currentKm, plateNumber)
    - getEmployeeByEmail(email)

}

class OrganizationRepository {
    + getOrganizationByEmployeeEmail(email)
}

class Repositories {
    - Repositories()
    + getInstance() : Repositories
    + getOrganizationRepository()
}

class CreateMaintenanceController {
    + CreateMaintenanceController(organizationRepository)
    + getTaskCategories()
    + createVehicle(**userEmail**, brand, model, type, tare weight, \ngross weight, current km,register date, \nacquisition date, maintenance frequency, \nplate number, passengers number,\ndoors number, fuel type, trailer machines)
    - getEmployeeFromSession()
}

note right of CreateMaintenanceController
    - userEmail is obtained
    from the user session
end note

class CreateMaintenanceUI {
}

Repositories -> Repositories : instance
ApplicationSession -> ApplicationSession : instance

CreateMaintenanceUI .> CreateMaintenanceController

CreateMaintenanceController .> Repositories : repositories

CreateMaintenanceController ..> VehicleMaintenance
CreateMaintenanceController ..> OrganizationRepository : organizationRepository

Repositories --> "1" OrganizationRepository

OrganizationRepository --> "*" Organization
ApplicationSession --> "1" UserSession : userSession

CreateMaintenanceController ..> "1" Organization : organization
CreateMaintenanceController ..> ApplicationSession
CreateMaintenanceController ..> UserSession
Vehicle "1" --> "*" VehicleMaintenance : have
Employee "1" --> "*" VehicleMaintenance : register
Organization "1" --> "*" Vehicle : register
Vehicle --> Employee : createdBy

Organization --> "*" Employee : employs

@enduml